<?xml version="1.0"?>
<svg xmlns="http://www.w3.org/2000/svg" height="512px" viewBox="0 0 192 192" width="512px" class="hovered-paths"><g><path d="m64 96a32.26 32.26 0 0 1 .443-5.291l-30.768-9.231a63.9 63.9 0 0 0 18.79 61.4l-16.746 25.122h-35.719v16h40a8 8 0 0 0 6.656-3.562l18.8-28.2a63.641 63.641 0 0 0 26.544 7.625v-32.121a32 32 0 0 1 -28-31.742z" data-original="#000000" class="hovered-path active-path" data-old_color="#000000" fill="#FFFFFF"/><path d="m138.328 48.016a63.74 63.74 0 0 0 -42.328-16.016 64.455 64.455 0 0 0 -10.614.884l-14.231-28.462a8 8 0 0 0 -7.155-4.422h-40v16h35.056l10.789 21.579a64.212 64.212 0 0 0 -33.889 36.232l30.784 9.235a31.987 31.987 0 0 1 48.876-12.319z" data-original="#000000" class="hovered-path active-path" data-old_color="#000000" fill="#FFFFFF"/><path d="m156 144-8.013-10.683a63.953 63.953 0 0 0 -4-79.645l-22.714 22.712a31.984 31.984 0 0 1 -21.273 51.358v32.121a63.718 63.718 0 0 0 36.9-14.663l8.7 11.6a8 8 0 0 0 6.4 3.2h40v-16z" data-original="#000000" class="hovered-path active-path" data-old_color="#000000" fill="#FFFFFF"/><circle cx="144" cy="16" r="8" data-original="#000000" class="hovered-path active-path" data-old_color="#000000" fill="#FFFFFF"/><circle cx="168" cy="16" r="8" data-original="#000000" class="hovered-path active-path" data-old_color="#000000" fill="#FFFFFF"/><circle cx="120" cy="16" r="8" data-original="#000000" class="hovered-path active-path" data-old_color="#000000" fill="#FFFFFF"/></g> </svg>
